{
    "asset" : {
        "generator" : "Khronos glTF Blender I/O v1.8.19",
        "version" : "2.0"
    },
    "scene" : 0,
    "scenes" : [
        {
            "name" : "Scene",
            "nodes" : [
                1
            ]
        }
    ],
    "nodes" : [
        {
            "mesh" : 0,
            "name" : "hoverable_doorBody",
            "rotation" : [
                0,
                0,
                1,
                1.1920926823449918e-07
            ],
            "scale" : [
                1.0056694746017456,
                1.0056692361831665,
                1.0056692361831665
            ],
            "translation" : [
                -0.2573848068714142,
                1.4552650451660156,
                0.512478768825531
            ]
        },
        {
            "children" : [
                0
            ],
            "name" : "DoorOrigin",
            "rotation" : [
                -0.7071068286895752,
                0,
                0,
                0.7071068286895752
            ],
            "scale" : [
                0.009999999776482582,
                -0.009999999776482582,
                0.009999999776482582
            ],
            "translation" : [
                0.00343167781829834,
                -0.0007349848747253418,
                0.005955398082733154
            ]
        }
    ],
    "animations" : [
        {
            "channels" : [
                {
                    "sampler" : 0,
                    "target" : {
                        "node" : 1,
                        "path" : "rotation"
                    }
                }
            ],
            "name" : "DoorOriginAction",
            "samplers" : [
                {
                    "input" : 4,
                    "interpolation" : "LINEAR",
                    "output" : 5
                }
            ]
        },
        {
            "channels" : [
                {
                    "sampler" : 0,
                    "target" : {
                        "node" : 0,
                        "path" : "rotation"
                    }
                }
            ],
            "name" : "defaultMaterial.032Action",
            "samplers" : [
                {
                    "input" : 6,
                    "interpolation" : "LINEAR",
                    "output" : 7
                }
            ]
        },
        {
            "channels" : [
                {
                    "sampler" : 0,
                    "target" : {
                        "node" : 0,
                        "path" : "rotation"
                    }
                }
            ],
            "name" : "DoorBodyAction",
            "samplers" : [
                {
                    "input" : 8,
                    "interpolation" : "LINEAR",
                    "output" : 9
                }
            ]
        }
    ],
    "materials" : [
        {
            "doubleSided" : true,
            "name" : "Porte_D",
            "normalTexture" : {
                "index" : 0
            },
            "occlusionTexture" : {
                "index" : 1
            },
            "pbrMetallicRoughness" : {
                "baseColorTexture" : {
                    "index" : 2
                },
                "metallicRoughnessTexture" : {
                    "index" : 1
                }
            }
        }
    ],
    "meshes" : [
        {
            "name" : "defaultMaterial.032",
            "primitives" : [
                {
                    "attributes" : {
                        "POSITION" : 0,
                        "NORMAL" : 1,
                        "TEXCOORD_0" : 2
                    },
                    "indices" : 3,
                    "material" : 0
                }
            ]
        }
    ],
    "textures" : [
        {
            "sampler" : 0,
            "source" : 0
        },
        {
            "sampler" : 0,
            "source" : 1
        },
        {
            "sampler" : 0,
            "source" : 2
        }
    ],
    "images" : [
        {
            "mimeType" : "image/png",
            "name" : "Porte_D_normal",
            "uri" : "textures/Porte_D_normal.png"
        },
        {
            "mimeType" : "image/png",
            "name" : "Porte_D_metallicRoughness",
            "uri" : "textures/Porte_D_metallicRoughness.png"
        },
        {
            "mimeType" : "image/jpeg",
            "name" : "Porte_D_baseColor",
            "uri" : "textures/Porte_D_baseColor.jpg"
        }
    ],
    "accessors" : [
        {
            "bufferView" : 0,
            "componentType" : 5126,
            "count" : 159,
            "max" : [
                6.3990583419799805,
                78.91836547851562,
                208.89999389648438
            ],
            "min" : [
                -2.985718011856079,
                1.0817259550094604,
                0.6000059843063354
            ],
            "type" : "VEC3"
        },
        {
            "bufferView" : 1,
            "componentType" : 5126,
            "count" : 159,
            "type" : "VEC3"
        },
        {
            "bufferView" : 2,
            "componentType" : 5126,
            "count" : 159,
            "type" : "VEC2"
        },
        {
            "bufferView" : 3,
            "componentType" : 5123,
            "count" : 396,
            "type" : "SCALAR"
        },
        {
            "bufferView" : 4,
            "componentType" : 5126,
            "count" : 20,
            "max" : [
                0.8333333333333334
            ],
            "min" : [
                0.041666666666666664
            ],
            "type" : "SCALAR"
        },
        {
            "bufferView" : 5,
            "componentType" : 5126,
            "count" : 20,
            "type" : "VEC4"
        },
        {
            "bufferView" : 6,
            "componentType" : 5126,
            "count" : 21,
            "max" : [
                0.8333333333333334
            ],
            "min" : [
                0
            ],
            "type" : "SCALAR"
        },
        {
            "bufferView" : 7,
            "componentType" : 5126,
            "count" : 21,
            "type" : "VEC4"
        },
        {
            "bufferView" : 8,
            "componentType" : 5126,
            "count" : 2,
            "max" : [
                0.8333333333333334
            ],
            "min" : [
                0.041666666666666664
            ],
            "type" : "SCALAR"
        },
        {
            "bufferView" : 9,
            "componentType" : 5126,
            "count" : 2,
            "type" : "VEC4"
        }
    ],
    "bufferViews" : [
        {
            "buffer" : 0,
            "byteLength" : 1908,
            "byteOffset" : 0
        },
        {
            "buffer" : 0,
            "byteLength" : 1908,
            "byteOffset" : 1908
        },
        {
            "buffer" : 0,
            "byteLength" : 1272,
            "byteOffset" : 3816
        },
        {
            "buffer" : 0,
            "byteLength" : 792,
            "byteOffset" : 5088
        },
        {
            "buffer" : 0,
            "byteLength" : 80,
            "byteOffset" : 5880
        },
        {
            "buffer" : 0,
            "byteLength" : 320,
            "byteOffset" : 5960
        },
        {
            "buffer" : 0,
            "byteLength" : 84,
            "byteOffset" : 6280
        },
        {
            "buffer" : 0,
            "byteLength" : 336,
            "byteOffset" : 6364
        },
        {
            "buffer" : 0,
            "byteLength" : 8,
            "byteOffset" : 6700
        },
        {
            "buffer" : 0,
            "byteLength" : 32,
            "byteOffset" : 6708
        }
    ],
    "samplers" : [
        {
            "magFilter" : 9729,
            "minFilter" : 9987
        }
    ],
    "buffers" : [
        {
            "byteLength" : 6740,
            "uri" : "door.bin"
        }
    ]
}
