{
  "accessors": [
    {
      "bufferView": 2,
      "componentType": 5126,
      "count": 2642,
      "max": [
        0.05000000074505806,
        0.048976000398397446,
        0.041099999099969864
      ],
      "min": [
        -0.05000000074505806,
        -0.048976000398397446,
        -0.041099999099969864
      ],
      "type": "VEC3"
    },
    {
      "bufferView": 2,
      "byteOffset": 31704,
      "componentType": 5126,
      "count": 2642,
      "max": [
        0.9995776414871216,
        0.9969273805618286,
        0.9876506328582764
      ],
      "min": [
        -0.9921565055847168,
        -0.9965717792510986,
        -0.9981102347373962
      ],
      "type": "VEC3"
    },
    {
      "bufferView": 3,
      "componentType": 5126,
      "count": 2642,
      "max": [
        0.9976372718811035,
        0.9693973064422607,
        0.9994817972183228,
        1.0
      ],
      "min": [
        -0.9786461591720581,
        -0.9984601736068726,
        -0.9805200695991516,
        -1.0
      ],
      "type": "VEC4"
    },
    {
      "bufferView": 1,
      "componentType": 5126,
      "count": 2642,
      "max": [
        0.9672920107841492,
        0.9997270107269287
      ],
      "min": [
        0.0003859999997075647,
        0.00039599998854100704
      ],
      "type": "VEC2"
    },
    {
      "bufferView": 0,
      "componentType": 5125,
      "count": 15000,
      "type": "SCALAR"
    }
  ],
  "asset": {
    "extras": {
      "author": "Loïc Norgeot (https://sketchfab.com/norgeotloic)",
      "license": "CC-BY-4.0 (http://creativecommons.org/licenses/by/4.0/)",
      "source": "https://sketchfab.com/3d-models/rock-scan-13-8ffb23ed14824fc29f53dde52398e22b",
      "title": "Rock Scan - 13"
    },
    "generator": "Sketchfab-13.23.0",
    "version": "2.0"
  },
  "bufferViews": [
    {
      "buffer": 0,
      "byteLength": 60000,
      "name": "floatBufferViews",
      "target": 34963
    },
    {
      "buffer": 0,
      "byteLength": 21136,
      "byteOffset": 60000,
      "byteStride": 8,
      "name": "floatBufferViews",
      "target": 34962
    },
    {
      "buffer": 0,
      "byteLength": 63408,
      "byteOffset": 81136,
      "byteStride": 12,
      "name": "floatBufferViews",
      "target": 34962
    },
    {
      "buffer": 0,
      "byteLength": 42272,
      "byteOffset": 144544,
      "byteStride": 16,
      "name": "floatBufferViews",
      "target": 34962
    }
  ],
  "buffers": [
    {
      "byteLength": 186816,
      "uri": "scene.bin"
    }
  ],
  "images": [
    {
      "uri": "textures/rock_004_preview_baseColor.jpeg"
    },
    {
      "uri": "textures/rock_004_preview_metallicRoughness.png"
    },
    {
      "uri": "textures/rock_004_preview_normal.jpeg"
    }
  ],
  "materials": [
    {
      "doubleSided": true,
      "name": "rock_004_preview",
      "normalTexture": {
        "index": 2
      },
      "occlusionTexture": {
        "index": 1
      },
      "pbrMetallicRoughness": {
        "baseColorTexture": {
          "index": 0
        },
        "metallicFactor": 0.0,
        "metallicRoughnessTexture": {
          "index": 1
        },
        "roughnessFactor": 0.8430471407150955
      }
    }
  ],
  "meshes": [
    {
      "name": "Object_0",
      "primitives": [
        {
          "attributes": {
            "NORMAL": 1,
            "POSITION": 0,
            "TANGENT": 2,
            "TEXCOORD_0": 3
          },
          "indices": 4,
          "material": 0,
          "mode": 4
        }
      ]
    }
  ],
  "nodes": [
    {
      "children": [
        1
      ],
      "matrix": [
        0.9831374883651733,
        -0.046282514929771465,
        0.17691411077976227,
        0.0,
        -0.10884794592857361,
        0.6292880177497862,
        0.7695119976997377,
        0.0,
        -0.14694486558437347,
        -0.7757928371429444,
        0.6136388778686521,
        0.0,
        0.0,
        0.0,
        0.0,
        1.0
      ],
      "name": "Sketchfab_model"
    },
    {
      "children": [
        2
      ],
      "name": "rock_004_preview.obj.cleaner.materialmerger.gles"
    },
    {
      "mesh": 0,
      "name": "Object_2"
    }
  ],
  "samplers": [
    {
      "magFilter": 9729,
      "minFilter": 9987,
      "wrapS": 10497,
      "wrapT": 10497
    }
  ],
  "scene": 0,
  "scenes": [
    {
      "name": "Sketchfab_Scene",
      "nodes": [
        0
      ]
    }
  ],
  "textures": [
    {
      "sampler": 0,
      "source": 0
    },
    {
      "sampler": 0,
      "source": 1
    },
    {
      "sampler": 0,
      "source": 2
    }
  ]
}
